<svg width="40" height="37" viewBox="0 0 40 37" fill="none" xmlns="http://www.w3.org/2000/svg">
<path d="M18.5 1C28.165 1 36 8.83502 36 18.5C36 28.165 28.165 36 18.5 36C8.83502 36 1 28.165 1 18.5C1 8.83502 8.83502 1 18.5 1Z" stroke="#EFCFAD" stroke-width="2"/>
<path d="M19.0243 26.682L37.0292 8.89313C38.5 7.99972 39.4503 6.44483 39 5.99972C38.5497 5.55461 36.4909 6.74972 36.4909 6.74972L17.9698 24.9667L7.76964 15.024L7.36116 15.4281C6.91087 15.8728 6.91087 16.5943 7.36116 17.0391L17.121 26.682C17.3811 26.9391 17.7337 27.0427 18.0727 27.0028C18.4116 27.0427 18.7642 26.9395 19.0243 26.682Z" fill="#EFCFAD"/>
</svg>
